<svg width="139" height="65" viewBox="0 0 139 65" fill="none" xmlns="http://www.w3.org/2000/svg">
<rect width="139" height="65" fill="#E5E5E5"/>
<g clip-path="url(#clip0_0_1)">
<rect width="1280" height="3315" transform="translate(-110)" fill="#F2F2F2"/>
<g filter="url(#filter0_d_0_1)">
<rect x="-70" width="1200" height="3315" fill="white"/>
</g>
<path d="M139 0H0L59.9312 60.9636C65.1688 66.3455 73.8312 66.3455 79.0688 60.9636L139 0Z" fill="#81B3D3"/>
<path d="M36.804 0.461918L68.9951 35.4753L101.086 0.646686L36.804 0.461918Z" fill="#23A9E1"/>
<path d="M61.2734 13.5803H78.6225C77.3188 12.8413 74.21 9.33068 72.6055 10.624C72.5052 10.7164 67.6916 5.35818 64.5828 7.94492C61.8751 10.2545 60.5714 7.66777 57.5629 9.42306C53.9527 11.6403 59.5686 12.8413 61.2734 13.5803ZM88.0492 10.3469L78.2214 10.4393C82.1324 6.28202 83.8373 6.74393 88.0492 10.3469Z" fill="white"/>
<path d="M97.8768 3.32581V1.1086H99.9827L97.8768 3.32581ZM48.5371 12.0099C48.6374 12.1023 50.9439 9.79267 54.6544 7.48308C58.0641 5.35825 63.2788 2.95628 69.0953 2.95628C74.9118 2.95628 80.2268 5.45064 83.6365 7.57546C87.347 9.79267 89.6535 12.0099 89.7538 12.1023L87.2467 14.8738C82.7339 15.4281 79.5248 18.4767 75.1123 17.83C72.9061 17.4605 72.8058 16.3519 72.2041 15.1509C71.7027 14.2271 70.9004 14.4118 69.8976 14.0423C68.995 13.6728 68.3933 13.0261 66.4879 13.3956C64.8834 13.7652 64.6828 16.0748 62.5769 15.9824C61.4737 15.89 61.3734 14.5042 59.7689 12.6566C55.6573 8.12976 51.8465 8.77645 49.2391 12.9337L68.8947 34.4591L48.5371 12.0099ZM40.1133 1.1086V2.86389L38.5087 1.1086H40.1133ZM94.1663 1.1086H97.3753V3.88011L94.1663 7.39069V1.1086ZM90.0546 11.6403V1.1086H93.5646V7.94499L90.0546 11.6403C90.0546 11.6403 90.1549 11.6403 90.0546 11.6403ZM89.5532 2.03244V11.1784C88.4501 10.1622 87.2467 9.23837 85.943 8.40691L89.5532 2.03244ZM85.4416 1.75529V8.03738C84.9401 7.76023 84.539 7.39069 83.9373 7.11354C83.2353 6.74401 82.5333 6.28209 81.7311 5.91255L85.4416 1.75529ZM81.0291 1.57052V5.54302C80.0262 5.0811 78.9231 4.61918 77.9203 4.15726L81.0291 1.57052ZM81.6308 1.1086H85.3413L81.6308 5.35825V1.1086ZM85.943 1.1086H89.5532L85.943 7.66784V1.1086ZM77.118 1.1086H81.0291L77.5191 3.9725C77.4189 3.9725 77.3186 3.88011 77.2183 3.88011L77.118 1.1086ZM76.6166 1.47814V3.69535C75.6138 3.32581 74.6109 3.04866 73.5078 2.86389L76.6166 1.47814ZM72.4047 1.47814V2.67913C71.7027 2.58674 71.0007 2.49436 70.1984 2.40197L72.4047 1.47814ZM65.5854 1.47814L67.7916 2.40197C66.9893 2.40197 66.2874 2.49436 65.5854 2.67913V1.47814ZM61.4737 1.47814L64.5825 2.86389C63.4794 3.04866 62.4766 3.32581 61.4737 3.69535V1.47814ZM65.084 2.58674L61.7746 1.1086H65.084V2.58674ZM68.5939 2.21721L65.7859 1.01622H68.5939V2.21721ZM69.2959 1.1086H72.2041L69.2959 2.30959V1.1086ZM73.0064 1.1086H76.2155L73.0064 2.58674V1.1086ZM60.5712 3.9725L57.0612 1.1086H60.9723V3.88011L60.5712 3.9725ZM56.961 1.57052L60.0698 4.06488C58.9666 4.43442 57.9638 4.89633 56.961 5.45064V1.57052ZM52.6488 1.75529L56.259 5.91255C54.9553 6.55924 53.7519 7.29831 52.6488 8.12976V1.75529ZM48.4368 2.03244L52.0471 8.4993C50.7434 9.42313 49.54 10.347 48.4368 11.4556V2.03244ZM52.1473 7.57546L48.5371 1.01622H52.1473V7.57546ZM56.4595 5.26587L52.749 1.01622H56.4595V5.26587ZM43.8238 6.92877L40.6147 3.4182V1.1086H43.8238V6.92877ZM44.4255 1.1086H47.9354V11.4556L44.4255 7.57546V1.1086ZM69.2959 0H36.1019V13.488L68.995 50.3491L69.1956 50.0719L102.289 13.8575V0H69.2959Z" fill="#491213"/>
<path d="M66.3877 42.4965L68.9951 38.6164L71.6025 42.4965L68.9951 46.3766L66.3877 42.4965Z" fill="#23A9E1"/>
<path d="M74.4106 28.2694C71.001 26.4217 71.8033 25.0359 74.6112 23.7426C76.1155 23.0959 79.4248 20.6015 80.7285 21.433L74.4106 28.2694ZM72.1041 30.579C70.0984 30.4866 67.7919 30.2094 65.7862 30.6713C66.9896 30.9485 69.9981 31.7799 67.1902 32.4266C68.193 33.72 69.7976 33.6276 70.8004 32.519C70.3993 32.3342 70.0984 32.0571 69.7976 31.8723C70.9007 31.5952 71.9035 31.0409 72.1041 30.579ZM73.3075 29.1008C72.405 28.3617 71.4021 28.3617 70.5998 29.1008C69.3964 27.1608 65.1845 27.8074 63.1788 27.5303C64.282 29.9323 72.8061 30.3942 73.3075 29.1008ZM66.4882 27.0684C64.8837 26.6065 59.6689 26.6988 63.0786 25.4055C64.1817 25.0359 69.7976 25.4979 66.4882 27.0684ZM68.4939 24.2969C67.9925 23.2806 68.895 22.0797 70.1987 23.0035C71.4021 23.7426 69.597 24.8512 68.4939 24.2969ZM65.5857 24.3892C63.2791 25.0359 60.2706 23.6502 63.9811 23.0035C66.2876 22.5416 68.6945 23.4654 65.5857 24.3892C65.4854 24.3892 65.6859 24.3892 65.5857 24.3892ZM62.9783 18.6615C62.4769 20.1396 61.474 20.4167 61.5743 18.6615C61.6746 16.5366 63.1788 17.0909 64.7834 16.2595C66.0871 15.6128 66.7891 13.1184 69.0956 14.5966C70.0984 15.2433 71.3018 14.689 71.6027 15.7052C71.6027 15.6128 68.6945 21.8949 70.299 21.8949C67.0899 21.8949 68.4939 18.3843 69.6973 15.9823C68.4939 16.5366 66.5885 19.9548 68.193 20.6015C67.3908 21.6177 64.7834 23.0035 63.4797 21.9873C62.3766 21.0634 62.9783 19.8624 62.9783 18.6615ZM58.9669 21.2482C53.351 21.2482 57.1618 13.3032 59.0672 13.7651C61.2735 14.4118 60.9726 21.3406 58.9669 21.2482ZM52.7493 13.6727C50.1419 13.5804 51.2451 11.2708 53.0502 10.8088C54.755 10.3469 58.2649 11.8251 59.4683 12.8413C57.6632 13.3956 55.3567 13.3032 53.351 13.3956C53.1505 11.5479 52.649 12.1946 52.7493 13.6727Z" fill="#DC6243"/>
<path d="M72.0039 23.8351C69.0957 21.0636 76.3161 21.3407 77.5195 20.3245C78.3218 20.6016 84.5394 15.3358 86.0437 15.7053C84.9405 16.9063 82.634 20.6016 81.0295 20.6016C79.7258 20.6016 78.4221 20.4169 77.4193 21.2483C75.915 22.5417 73.5082 23.1884 72.0039 23.8351Z" fill="#F49774"/>
<path d="M72.906 20.5092C71.3015 21.3406 69.7972 18.1996 72.6052 18.4767C74.4103 18.6615 76.3157 18.292 78.0205 18.5691C76.7168 19.9549 74.9117 20.694 72.906 20.5092Z" fill="#F4B1A4"/>
<path d="M51.2452 19.3083C51.546 19.6778 51.8469 20.0473 51.7466 20.6016C51.7466 20.9712 51.1449 21.5255 51.546 21.7102L53.0503 20.0473C52.6492 19.9549 49.5404 16.5368 49.5404 16.1672L47.4344 17.1834C47.5347 17.553 48.2367 17.1834 48.6378 17.1834C49.1392 17.1834 49.5404 17.553 49.9415 17.8301C48.8384 18.6616 46.1307 20.8788 45.8299 20.8788C45.7296 20.8788 45.1279 20.5092 45.1279 20.8788C45.1279 21.0636 45.7296 21.5255 45.8299 21.6179L47.2338 23.1884C47.635 23.0036 47.1336 22.7265 47.3341 22.4493C47.4344 22.2645 50.5432 19.9549 51.2452 19.3083ZM47.8355 15.151C48.1364 15.0586 48.2367 15.4281 48.4372 15.151L46.8327 13.3957C46.6321 13.1186 46.3313 12.8414 46.3313 13.3957C46.4316 13.7652 42.3199 16.8139 42.1194 16.9063C41.8185 16.9987 41.6179 16.6291 41.4174 16.9987C41.9188 17.553 42.3199 18.0149 42.8214 18.5692C43.0219 18.754 43.1222 18.9387 43.3228 19.1235C43.5233 19.3083 43.4231 18.754 43.4231 18.754C43.3228 18.4768 43.7239 18.1997 44.0248 18.0149C45.0276 17.0911 47.5347 15.151 47.8355 15.151ZM42.1194 14.5967C41.0162 14.8738 39.7126 14.5043 39.4117 13.3957C39.0106 12.2871 39.8128 11.1785 40.7154 10.5318C41.6179 9.88513 43.0219 9.97751 43.5233 10.9937C43.7239 11.4556 43.6236 12.01 43.4231 12.4719C43.3228 12.749 43.0219 13.0262 43.4231 13.2109C44.0248 12.5643 44.5262 11.9176 45.1279 11.2709C44.4259 10.9013 44.125 10.2547 43.6236 9.70036C43.0219 9.05368 42.3199 8.40699 41.3171 8.31461C39.4117 8.03745 37.7069 9.88513 37.5063 11.4556C37.406 12.2871 37.7069 13.1186 38.3086 13.8576C38.81 14.4119 39.512 14.8738 39.9131 15.5205C40.1137 15.6129 41.7182 14.8738 42.0191 14.7815C42.2196 14.7815 42.1194 14.6891 42.1194 14.5967C42.1194 14.5967 41.6179 14.7815 42.1194 14.5967ZM67.6917 36.3992C66.9898 35.9373 65.0844 33.6277 64.6832 33.1658L64.4827 32.8887L64.2821 32.981C64.1818 33.0734 64.3824 33.3506 64.2821 33.5353C63.7807 34.2744 60.5716 36.4916 60.371 36.6764C59.9699 36.8612 59.5687 36.584 59.3682 36.8612C59.8696 37.4155 61.1733 38.986 61.3739 38.986C61.6747 38.986 61.4741 38.5241 61.4741 38.4317C61.5744 38.2469 63.179 36.9535 63.7807 36.4916C63.9812 36.3069 64.1818 36.7688 64.3824 36.9535C64.5829 37.2307 64.6832 37.6002 64.5829 37.8774C64.4827 38.0621 64.0815 38.4317 64.3824 38.6164C64.7835 38.1545 65.8866 36.9535 66.0872 36.7688C66.2878 36.584 65.6861 36.7688 65.7863 36.6764C65.5858 36.7688 65.2849 36.8612 65.0844 36.6764C64.9841 36.6764 64.3824 36.0297 64.4827 35.9373C64.7835 35.7526 65.0844 35.383 65.4855 35.2906C66.0872 35.1983 66.4883 36.2145 66.5886 36.584C66.6889 36.9535 66.6889 37.3231 66.4883 37.6002C66.3881 37.8774 66.1875 38.0621 66.4883 38.1545L67.8923 36.3992C67.8923 36.4916 67.792 36.4916 67.6917 36.3992C67.792 36.4916 67.5915 36.3992 67.6917 36.3992ZM58.4656 28.1771C57.7636 28.1771 57.0617 28.4542 56.4599 28.9162C55.056 30.0248 54.8554 31.9648 55.9585 33.3506C57.2622 34.9211 59.3682 35.1059 61.073 33.9973C62.477 32.8887 62.6775 30.9486 61.5744 29.5628C60.7722 28.639 59.5687 28.1771 58.4656 28.1771ZM59.669 29.4705C60.5716 29.3781 61.1733 30.2095 60.7722 31.1334C60.371 32.0572 59.3682 32.981 58.3653 33.3506C57.1619 33.8125 56.3597 32.8887 56.8611 31.7801C57.2622 30.8562 58.2651 29.9324 59.2679 29.5628C59.3682 29.5628 59.4685 29.4705 59.669 29.4705ZM56.8611 25.2208C57.1619 25.2208 57.4628 25.5903 57.6634 25.2208L56.2594 23.6503C55.8582 23.8351 56.2594 24.0198 56.1591 24.2046C55.9585 24.4817 54.4543 24.6665 54.0531 24.7589C54.1534 24.3894 54.6548 23.1884 54.8554 23.096C55.2565 22.8188 55.4571 23.3731 55.6577 23.0036L53.8526 21.0636C53.652 20.8788 53.4514 20.4169 53.2509 20.694C53.2509 20.694 53.2509 21.6179 53.1506 21.7102C53.0503 21.895 52.5489 23.9274 51.9472 24.3894C51.6463 24.6665 50.4429 25.5903 50.1421 25.6827C49.8412 25.7751 49.6407 25.3132 49.3398 25.6827L50.9443 27.438C51.0446 27.5304 51.3455 27.9923 51.4458 27.9923C51.7466 28.0847 51.4458 27.438 51.546 27.3456C51.6463 27.0685 53.1506 25.6827 53.8526 25.5903C54.7551 25.4056 55.8582 25.1284 56.8611 25.2208C56.6605 25.2208 57.0617 25.2208 56.8611 25.2208ZM81.1298 31.4105C81.2301 31.7801 81.3303 32.242 81.2301 32.6115C81.1298 33.1658 80.6284 34.3668 79.8261 33.9973C79.0238 33.6277 78.4221 32.981 77.7201 32.4267C78.2215 31.8724 78.723 31.4105 79.6255 31.6877C79.8261 31.7801 80.0266 31.6877 79.8261 31.5029C79.5252 31.3181 77.8204 30.3019 77.7201 30.3943C77.5196 30.5791 78.021 30.9486 77.8204 31.3181C77.7201 31.5953 77.4193 31.7801 77.2187 32.0572C76.7173 31.6877 76.0153 31.3181 76.5167 30.6715C76.9179 30.3019 77.319 29.9324 77.9207 29.84C78.3218 29.7476 79.1241 30.1171 79.2244 29.7476C78.5224 29.4705 77.8204 29.1009 77.1184 28.8238C77.2187 29.2857 74.9122 31.5029 74.4108 32.0572C74.3105 32.1496 74.0096 32.4267 74.0096 32.5191C74.0096 32.7963 74.4108 32.6115 74.4108 32.6115C74.7116 32.5191 78.8232 35.6602 78.9235 35.9373C79.0238 36.1221 78.8232 36.3069 78.9235 36.3992C78.9235 36.3992 79.0238 36.4916 79.1241 36.4916C79.4249 36.2145 82.0323 32.8887 82.634 32.7963C82.1326 32.0572 81.6312 31.3181 81.1298 30.5791C80.7286 30.7638 81.0295 31.2258 81.1298 31.4105ZM77.1184 35.4754C75.8147 34.6439 73.5082 36.2145 73.1071 36.3992C72.4051 36.6764 71.9037 36.0297 72.3048 35.4754C72.6056 35.0135 73.2073 34.7363 73.8091 34.7363C74.0096 34.7363 74.7116 34.8287 74.7116 34.7363C74.8119 34.6439 74.8119 34.6439 74.7116 34.5516C74.1099 34.182 73.6085 33.8125 73.0068 33.5353C72.9065 34.182 72.1042 34.5516 71.7031 35.0135C71.2017 35.5678 70.7003 36.2145 70.7003 36.8612C70.7003 37.5078 71.1014 38.1545 71.8034 38.4317C72.5054 38.8012 73.3076 38.5241 74.0096 38.1545C74.4108 37.8774 74.8119 37.6002 75.213 37.4155C75.8147 37.1383 76.7173 37.4155 76.5167 38.1545C76.3162 38.8012 75.6142 39.3555 74.9122 39.5403C74.511 39.6327 74.1099 39.6327 73.7088 39.4479C73.4079 39.3555 73.1071 38.986 72.9065 39.3555L75.213 40.8337C75.3133 40.3717 75.5139 40.187 75.915 39.9098C76.4164 39.5403 76.8176 39.0784 77.2187 38.6164C78.021 37.785 78.3218 36.3069 77.1184 35.4754ZM94.7684 9.51559C94.7684 9.60798 94.7684 9.60798 94.7684 9.51559L93.8658 10.4394L93.0636 11.3633C92.863 11.548 92.7627 11.6404 93.0636 11.8252C93.565 11.548 96.5735 16.2596 96.3729 16.9063C95.8715 17.0911 91.8601 13.8576 91.7599 13.6729C91.7599 13.5805 91.9604 13.0262 91.6596 13.1186C91.5593 13.1186 91.1582 13.6729 91.0579 13.7652L90.4562 14.4119C90.6567 14.6891 90.757 14.4119 91.0579 14.4119C91.2584 14.5043 92.2613 15.2434 92.5621 15.4281C92.0607 15.4281 90.8573 15.5205 90.6567 15.5205C90.055 15.6129 90.3559 15.151 89.9547 14.9662L88.4505 16.6291L87.5479 17.553C87.5479 17.553 87.5479 17.553 87.5479 17.6454C87.7485 17.8301 87.6482 17.7377 87.9491 17.6454C88.2499 17.553 92.2613 20.6016 92.3616 20.7864C92.5621 21.0636 92.2613 21.3407 92.6624 21.5255L93.8658 20.2321C93.9661 20.1397 93.9661 20.1397 93.8658 20.1397C93.565 19.9549 93.565 20.2321 93.1638 20.2321C92.863 20.1397 90.2556 18.1997 89.353 17.4606L94.6681 17.2758C94.8687 17.2758 95.3701 17.8301 95.3701 18.0149C95.2698 18.1997 95.0692 18.3844 95.3701 18.4768C95.6709 18.1073 95.9718 17.8301 96.2726 17.4606L96.3729 17.2758C96.4732 17.2758 96.4732 17.1834 96.4732 17.0911L96.5735 16.9987C96.8743 16.7215 97.7769 15.7977 97.6766 15.7053C97.3758 15.4281 97.2755 15.9824 96.8743 15.7053C96.6738 15.5205 96.0721 14.5967 95.9718 14.4119C95.7712 14.1348 96.3729 13.8576 96.5735 13.7652C97.0749 13.4881 98.6794 13.0262 98.88 13.95C98.88 14.1348 98.6794 14.3195 98.7797 14.4119C98.7797 14.4119 98.88 14.5967 98.9803 14.5043L101.086 12.1023C100.986 12.01 100.986 12.01 100.886 11.9176C100.384 12.3795 95.3701 10.5318 95.0692 10.2547C94.9689 10.0699 94.9689 9.51559 94.7684 9.51559ZM94.5678 11.9176C95.3701 12.1947 96.0721 12.4719 96.8743 12.8414C96.6738 12.9338 96.4732 13.0262 96.2726 13.1186C96.0721 13.2109 95.8715 13.3957 95.6709 13.5805L94.5678 11.9176ZM87.9491 19.0311C86.8459 18.9387 85.7428 19.4006 84.9406 20.2321C83.7371 21.6179 83.8374 23.6503 85.3417 24.7589C86.8459 25.8675 89.0522 25.5903 90.2556 24.297C91.459 22.9112 91.3587 20.8788 89.8545 19.7702C89.353 19.4006 88.6511 19.1235 87.9491 19.0311ZM86.5451 20.5092C87.1468 20.5092 87.8488 20.8788 88.2499 21.1559C89.0522 21.6179 90.4562 22.7265 89.7542 23.6503C89.7542 23.5579 89.8545 23.5579 89.6539 23.7427C88.8516 24.4817 87.4477 23.8351 86.7457 23.2808C86.0437 22.8188 84.74 21.7102 85.5423 20.7864C85.8431 20.6016 86.144 20.5092 86.5451 20.5092ZM83.4363 24.4817C82.2329 24.3894 81.0295 24.9437 80.1269 25.9599C79.5252 26.699 78.8232 27.3456 78.2215 28.0847C78.4221 28.3619 78.723 27.9923 79.0238 28.1771C79.3247 28.3619 83.1355 31.2258 83.1355 31.4105C83.2357 31.6877 82.9349 31.7801 83.2357 31.9648C83.336 32.0572 86.144 28.8238 86.4448 28.2695C86.8459 27.2533 86.5451 26.0523 85.6425 25.3132C85.7428 25.4056 85.8431 25.4056 85.6425 25.3132C84.8403 24.7589 84.1383 24.4817 83.4363 24.4817ZM82.3332 25.9599C82.4335 25.9599 82.5337 25.9599 82.634 25.9599C84.038 26.3294 86.0437 27.8999 84.74 29.2857C84.5394 29.4705 84.74 29.2857 84.3389 29.6552C84.1383 29.84 80.1269 26.8837 80.3275 26.699C80.7286 26.237 81.6312 25.8675 82.3332 25.9599Z" fill="white"/>
</g>
<defs>
<filter id="filter0_d_0_1" x="-85" y="-15" width="1230" height="3345" filterUnits="userSpaceOnUse" color-interpolation-filters="sRGB">
<feFlood flood-opacity="0" result="BackgroundImageFix"/>
<feColorMatrix in="SourceAlpha" type="matrix" values="0 0 0 0 0 0 0 0 0 0 0 0 0 0 0 0 0 0 127 0" result="hardAlpha"/>
<feOffset/>
<feGaussianBlur stdDeviation="7.5"/>
<feColorMatrix type="matrix" values="0 0 0 0 0 0 0 0 0 0 0 0 0 0 0 0 0 0 0.2 0"/>
<feBlend mode="normal" in2="BackgroundImageFix" result="effect1_dropShadow_0_1"/>
<feBlend mode="normal" in="SourceGraphic" in2="effect1_dropShadow_0_1" result="shape"/>
</filter>
<clipPath id="clip0_0_1">
<rect width="1280" height="3315" fill="white" transform="translate(-110)"/>
</clipPath>
</defs>
</svg>
