<svg width="115" height="36" viewBox="0 0 115 36" fill="none" xmlns="http://www.w3.org/2000/svg">
<path d="M0 13.6589V16.4119H2.5V13.6589H0Z" fill="black"/>
<path d="M11.5999 4.76471C9.9999 4.76471 8.7999 5.50588 7.9999 6.56471H7.8999V0H5.8999V16.4118H7.8999V10.8C7.8999 8.57647 9.1999 6.98823 11.1999 6.98823C12.9999 6.98823 14.0999 8.47059 14.0999 10.3765V16.4118H16.0999V9.95294C16.1999 6.77647 14.2999 4.76471 11.5999 4.76471Z" fill="black"/>
<path d="M26.5999 5.08244H21.7999V1.16479H19.7999V5.18832H17.8999V7.30597H19.7999V13.6589C19.7999 15.4589 20.7999 16.5177 22.4999 16.5177H26.5999V14.4001H22.8999C22.1999 14.4001 21.7999 13.9766 21.7999 13.2354V7.20009H26.5999V5.08244Z" fill="black"/>
<path d="M41.1 4.87061C39.5 4.87061 38.2 5.71766 37.6 7.09413H37.5C36.9 5.82355 35.7 4.87061 34.1 4.87061C32.7 4.87061 31.6 5.71766 31 6.77649H30.9V5.08237H29V16.3059H31V10.5883C31 8.47061 32 6.88237 33.6 6.88237C35.1 6.88237 36 7.94119 36 9.63531V16.3059H38V10.3765C38 7.83531 39.4 6.88237 40.6 6.88237C42.1 6.88237 43 7.94119 43 9.63531V16.3059H45V9.42355C45.1 6.77649 43.6 4.87061 41.1 4.87061Z" fill="black"/>
<path d="M47.8 13.4471C47.8 15.2471 48.8 16.3059 50.6 16.3059H52.6V14.1882H50.9001C50.2001 14.1882 49.8 13.7647 49.8 13.0235V0H47.8V13.4471Z" fill="black"/>
<path d="M28.9001 20.8588C28.0001 19.6941 26.7001 18.9529 25.0001 18.9529C21.9001 18.9529 19.6001 21.3882 19.6001 24.8823C19.6001 28.3764 21.9001 30.8117 25.0001 30.8117C26.8001 30.8117 28.0001 29.9646 28.8001 28.7999H28.9001V30.4941H30.9001V19.2705H28.9001V20.8588ZM25.3001 28.6941C23.1001 28.6941 21.7001 26.9999 21.7001 24.8823C21.7001 22.7646 23.1001 21.0705 25.3001 21.0705C27.5001 21.0705 28.9001 22.7646 28.9001 24.8823C28.9001 26.8941 27.5001 28.6941 25.3001 28.6941Z" fill="black"/>
<path d="M44.2 23.2941C43.7 20.7529 41.5999 18.9529 38.7999 18.9529C35.3999 18.9529 33.2 21.5999 33.2 24.8823C33.2 28.1646 35.3999 30.8117 38.7999 30.8117C41.5999 30.8117 43.7 28.9058 44.2 26.3646H42.0999C41.6999 27.7411 40.3999 28.7999 38.7999 28.7999C36.5999 28.7999 35.2 27.1058 35.2 24.9882C35.2 22.8705 36.5999 21.1764 38.7999 21.1764C40.3999 21.1764 41.5999 22.2352 42.0999 23.5058H44.2V23.2941Z" fill="black"/>
<path d="M55.1 20.8588C54.2 19.6941 52.9001 18.9529 51.2001 18.9529C48.1001 18.9529 45.8 21.3882 45.8 24.8823C45.8 28.3764 48.1001 30.8117 51.2001 30.8117C53.0001 30.8117 54.2 29.9646 55 28.7999H55.1V30.4941H57.1V19.2705H55.1V20.8588ZM51.5 28.6941C49.3 28.6941 47.9001 26.9999 47.9001 24.8823C47.9001 22.7646 49.3 21.0705 51.5 21.0705C53.7 21.0705 55.1 22.7646 55.1 24.8823C55.1 26.8941 53.6 28.6941 51.5 28.6941Z" fill="black"/>
<path d="M68.6999 20.9647C67.7999 19.8 66.4999 18.9529 64.7999 18.9529C61.6999 18.9529 59.3999 21.3882 59.3999 24.8823C59.3999 28.3765 61.5999 30.8118 64.7999 30.8118C66.4999 30.8118 67.7999 29.9647 68.5999 28.9059H68.6999V30.4941H70.6999V14.1882H68.6999V20.9647ZM65.0999 28.6941C62.8999 28.6941 61.4999 27 61.4999 24.8823C61.4999 22.7647 62.8999 21.0706 65.0999 21.0706C67.2999 21.0706 68.6999 22.7647 68.6999 24.8823C68.5999 27 67.1999 28.6941 65.0999 28.6941Z" fill="black"/>
<path d="M78.3 18.9529C75 18.9529 72.8 21.5999 72.8 24.8823C72.8 28.0588 74.9 30.8117 78.3 30.8117C80.8 30.8117 82.8 29.4352 83.5 26.9999H81.4C80.9 28.0588 79.8 28.6941 78.4 28.6941C76.5 28.6941 75.1 27.3176 75 25.6235H83.8C84 21.8117 81.8 18.9529 78.3 18.9529ZM78.3 20.9646C80 20.9646 81.3 22.0235 81.6 23.7176H75.1C75.4 22.1294 76.6 20.9646 78.3 20.9646Z" fill="black"/>
<path d="M98.2001 18.9529C96.6001 18.9529 95.3001 19.7999 94.6001 21.0705H94.5001C93.9001 19.7999 92.7001 18.9529 91.1001 18.9529C89.7001 18.9529 88.6001 19.6941 88.0001 20.8588V19.2705H86.1001V30.4941H88.1001V24.7764C88.1001 22.6588 89.1001 21.1764 90.7001 21.0705C92.2001 21.0705 93.1001 22.1294 93.1001 23.8235V30.4941H95.1001V24.5646C95.1001 22.0235 96.5001 21.0705 97.7001 21.0705C99.2001 21.0705 100.1 22.1294 100.1 23.8235V30.4941H102.1V23.6117C102.2 20.8588 100.7 18.9529 98.2001 18.9529Z" fill="black"/>
<path d="M109.4 28.5883L105.8 19.1648H103.6L108.4 31.4471C108.1 32.4001 107.7 32.7177 106.7 32.7177H104.2V34.8354H106.7C108.5 34.8354 109.5 33.9883 110.2 32.0824L114.9 19.1648H112.8L109.4 28.5883Z" fill="black"/>
</svg>
